<svg viewBox="0 0 900 500" xmlns="http://www.w3.org/2000/svg" xmlns:xlink="http://www.w3.org/1999/xlink" id="Layer_1" xml:space="preserve" overflow="hidden"><g><g><rect x="444.9" y="117.4" width="27.6" height="264.1" fill="#FFFFFF"/><g><rect x="520" y="197" width="27.5" height="184.5" fill="#FFFFFF"/><ellipse cx="534" cy="136.2" rx="18.8" ry="18.8" fill="#FFFFFF" transform="matrix(0.1602 -0.9871 0.9871 0.1602 313.975 641.499)"/></g><path d="M740.7 197 702.4 197 622.9 266.6 622.8 117.4 595.3 117.4 595.3 381.5 622.8 381.5 622.8 296.3 704.4 381.5 742.6 381.5 645.3 282.8Z" fill="#FFFFFF"/><g><path d="M258.2 360.2C197.3 360.2 148 310.9 148 250 148 224.1 156.9 200.4 171.8 181.6L151.7 161.2C131.6 185.3 119.5 216.2 119.5 250 119.5 326.6 181.6 388.7 258.2 388.7 291.4 388.7 321.8 377 345.7 357.6L325.6 337.2C306.9 351.6 283.6 360.2 258.2 360.2Z" fill="#FFFFFF"/><path d="M364.8 338.3 366.4 336.7C385.4 313 396.8 282.8 396.8 250 396.8 173.4 334.7 111.3 258.1 111.3 225.1 111.3 194.8 122.8 171 142.1 164.1 147.7 157.8 153.8 152.1 160.6 151.9 160.8 151.8 161 151.6 161.2L171.7 181.6C171.9 181.4 172 181.2 172.2 180.9 177.7 174 184.1 167.9 191.1 162.5 209.7 148.3 232.9 139.8 258.1 139.8 319 139.8 368.3 189.1 368.3 250 368.3 275.7 359.5 299.3 344.8 318 339.5 324.8 333.4 330.9 326.6 336.3 326.2 336.6 325.9 336.8 325.5 337.1L345.6 357.5 369.3 381.5 407.5 381.5 364.8 338.3Z" fill="#009845"/></g></g></g><g><path d="M768 383.9C766.2 383.9 764.5 383.6 762.9 382.9 761.3 382.2 759.9 381.3 758.7 380.1 757.5 378.9 756.6 377.5 755.9 375.9 755.2 374.3 754.9 372.6 754.9 370.8 754.9 369 755.2 367.3 755.9 365.7 756.6 364.1 757.5 362.7 758.7 361.5 759.9 360.3 761.3 359.4 762.9 358.7 764.5 358 766.2 357.7 768 357.7 769.8 357.7 771.5 358 773.1 358.7 774.7 359.4 776.1 360.3 777.3 361.5 778.5 362.7 779.4 364.1 780.1 365.7 780.8 367.3 781.1 369 781.1 370.8 781.1 372.6 780.8 374.3 780.1 375.9 779.4 377.5 778.5 378.9 777.3 380.1 776.1 381.3 774.7 382.2 773.1 382.9 771.5 383.6 769.8 383.9 768 383.9ZM768 381.5C770 381.5 771.7 381 773.3 380.1 774.9 379.1 776.2 377.9 777.1 376.3 778 374.7 778.5 372.9 778.5 371 778.5 369.1 778 367.3 777.1 365.7 776.2 364.1 774.9 362.8 773.3 361.9 771.7 360.9 769.9 360.5 768 360.5 766 360.5 764.3 361 762.7 361.9 761.1 362.9 759.8 364.1 758.9 365.7 758 367.3 757.5 369.1 757.5 371 757.5 372.9 758 374.7 758.9 376.3 759.8 377.9 761.1 379.2 762.7 380.1 764.3 381 766.1 381.5 768 381.5ZM763.6 376.7 763.6 364.7 769.4 364.7C770 364.7 770.6 364.8 771.2 365.1 771.8 365.4 772.2 365.8 772.6 366.4 773 367 773.2 367.6 773.2 368.5 773.2 369.3 773 370 772.6 370.6 772.2 371.2 771.7 371.6 771.1 372 770.5 372.4 769.9 372.5 769.3 372.5L764.8 372.5 764.8 370.9 768.7 370.9C769.3 370.9 769.8 370.7 770.2 370.3 770.6 369.9 770.9 369.3 770.9 368.6 770.9 367.8 770.7 367.3 770.2 367 769.7 366.7 769.3 366.5 768.8 366.5L765.8 366.5 765.8 376.9 763.6 376.9ZM770.6 371.1 773.6 376.7 771.3 376.7 768.4 371.1 770.6 371.1Z" fill="#FFFFFF"/></g></svg>